<svg id="lBeyond_Borders_Empowerment_logo" data-name="lBeyond Borders Empowerment logo" xmlns="http://www.w3.org/2000/svg" viewBox="0 0 655.3 818.7"><defs><style>.cls-1{fill:#68afff;}.cls-2{fill:#f3f4fd;}.cls-3{fill:#c00701;}.cls-4{fill:#004aad;}.cls-5{fill:#2b5292;}.cls-6{fill:#c50604;}</style></defs><ellipse class="cls-1" cx="336.7" cy="335.2" rx="250.7" ry="247.6"/><path class="cls-2" d="M543.5,661.8c-.4-4-5.6-5.9-7.2-9.5s-1.5-7.2-3.3-10.7c-3.6-6.8-4.7-11.2-1.2-18.9,1.2-2.8,3.2-5.3,4.5-8.1,2.5-5.4,0-3.3-1.5-8.1s.9-3.5,4.3-6.4c1.8-1.5,3.2-5,4.4-7,2.5-4.2,6.7-9.5,8.2-14.1s-.3-11.1,1.4-16.4,7.1-7.5,11-12.2,1.2-10,.7-16.3a65.1,65.1,0,0,1,5.5-32.7c5.8-12.4,7.1-21.9-6.3-28.6-6.5-3.3-8.9-1.3-16.3-1.1-5.7.2-11.5-2-17-1.2-3.4.5-5,2.1-8.1,2.2s-3.1-1.5-6-.7-8,11.1-13.1,6.8c-2.9-2.4,1-12.1-.4-15.9s-6-12-11.9-13.3c-2.3-.4-6.6.6-9.3.4a49.3,49.3,0,0,1-9.3-1.8c-3.8-1.1-11.1-2.7-13.6-5.7-4.1.9-7.4-.4-11.5.8s-5.7,3.3-9.8,4-8.1-.9-11.7.6-5.3,4.9-7.2,6.7a65,65,0,0,1-16.4,11.1c-9.4,4.3-12.2,1.4-14-7.1l-2.2-2.2c1-10.3-5.8-9.1-13.7-9.4-2.9-6.3,4.7-13.5-1.1-19.7-7.7,1.7-10.3,23.3-19.1,16.6-5.8-4.3-3.8-21.5-1.5-27.2s13.5-17.9,19.7-20.3,9.7-1.1,12.8,2.3,1.8,8.6,3.8,13.3c6-3.1,2.2-10,.8-13.8-2.4-6.5,1.6-7,3.9-12.8s1.2-10.3,4.2-15.6,5.2-8.6,7.9-12.6,7.8-5.5,11.3-9.2c5.3-5.5-5.2-10.4,4.3-12.4,3.4-.7,2.3,1.7,6.5-.5a66.2,66.2,0,0,0,6.5-4.7c8-5.7,1.4-4.9-3.9-8.1-6.8-4,.8-5.1,6-7.4s2.6-2.6,6.7-1.4,2.5,4,6.9,2.6c8.5-2.5.3-8.7-2.3-10.7-4.5-3.6-6.2-6.4-13.1-4.7a9.2,9.2,0,0,0-2.1-6.4c-5.5,2.2-7.6-1.3-12.4-1.6-8.1-.6-5.3,4.6-7.3,9.1s-8,5.6-9,11,2.4,8.6-6.6,9.6c.3-3.3-1.2-6.9-2.3-10a38.8,38.8,0,0,1-7.6.4c-2.2-7.9,7.2-11.1,13.4-13.6s7.5-10.2,13.7-13.1,12.7,5,18.6-2.2c3.5-4.1,1-5.3-1.4-7.7-.6-.7-3.3-1.8-4-2.3l-.3-.2c5.5-2.6,11.2-5,16.9-7.2a61.4,61.4,0,0,0,7.3,7.2c1.4,1.2,3.5,1.7,4.7,3.1s0,4.5,3,5.1c4.6.9,12.6-15,14.8-17.8s4.6-5.6,3-7.9a256.3,256.3,0,0,1,56.8-7.3l5.7,3.9c4.2,3.1,7.2,6.1,13.3,6.3,3.5.1,13.8-2.8,11.5,5s-9,.4-11.5-1-12.6-2.7-10.6,3.4c3.1,9.1,25.5,1.4,23.5,12.9,3.2.7,9.3,1.7,9.5,5.6s-7.1,3.7-5.3,9.4c2.5,8,14.2,12.1,22.4,6.7s-2-16,8.7-20.2c4.2-1.7,7.1-1.2,11.8.5s7.4,6.1,11.7,4.5c-.3-2.6-2.9-3.8-3.9-6,3.6-.2,11.6,1.8,14.3,4s5.5,9.2,11.2,2c-1.3-.5-2.4-2.2-3.1-2.6,9.2-2.5,16.6-.8,22.7,5.4,13.5,13.8-12,6.8-10.6,15.6-5.8-.1-9.3-3.4-14.6-4.4-2.5-.5-6.4,1.2-8.4.5s-3-3.9-5.5-4.9c-9.8-3.8-25.3,10.9-31.6,16.7-1.7,1.6-3.8,2.3-4.6,4.7-1.3,4,2.2,3.9,2.4,7.3s-5.6,8.6-6.5,12.7c-2.2,10,10.8,19.8,12.3,29.7.8,5.6-3.8,13.1-.1,16.9,1.6,1.6,5.7,2.3,7.7,4.1s3.2,4.3,5.5,6c7.4,5.4,17.4,11,25.6,15.8,4.6,2.7,9.8,2.3,15-.1s10.6-5.3,14.3-8.3,4.6-7.5,11.1-6.8,10.8,4.9,14.9-1.1c5.6,2.8,2.7,11.1,3,15.8s4.2,10.2,9.4,14,7.6,5.3,8.9,13.3c1,6.2.9,12.2,1.2,18.5s-2.5,11.6-.5,17.5,5.7,9.3,6.7,15.6,2.2,11.8,2.2,17.4-2.8,11.5-3,17.4,2.2,12.2,7.4,15.3,8.8-.3,12.7-5c7.6-9.2,8.7-21.5,12.5-32.2s8-20.9,9.6-31.4c.4-2.3.9-4.5,1.5-6.8a6.2,6.2,0,0,1-.1,1.3l.3-.7.3-.3.4-.2q0-.2.3-.3h.2l1.1-1.5c.7-1,1.6-2,2.3-3.1a183,183,0,0,0,4.9-8.7,25.8,25.8,0,0,0,1.9-3.7,199.8,199.8,0,0,0-7.7-45.4C731.8,279.8,597,211.6,465.2,247.5,391,267.6,336.4,322.4,306.5,382.6c2.7,1.9,14.2-16.4,19.5-22.8l.4-.5c1.3-1.5,2.1-2.1,2.3-1.3a9.6,9.6,0,0,1-.9,1.7h0a10.5,10.5,0,0,0-.8,1.1,15.6,15.6,0,0,1-1.1,5.1c-2,5.5-7.1,8.9-9.4,14.1a42.1,42.1,0,0,0-2.9,16.2c0,5.1,2.5,10.6,2,15.9s-3.8,11.4-1,18.2c9.9-.1,1.6-13.9,9.2-16.8,4,4.9,5.4,15.7,6.5,22,1.4,8.6.2,11.2,7.7,16.8s8.5,7.9,17.2,6.6,12,1,17.2,6.9c6.2-.5,10.1-.6,12.6,5.2,2.9.6,9,3.5,11.9,3.4s9.3-7,14.2-4.1c8.1,4.9-1.1,25.9-1.9,32.5-1.2,9.7,1.9,22.6,12.8,26.3,5.5,2,10.9,2.2,14.1,7.5s3.1,9.8,7.2,14.1c6.3,6.8,16.4,6.9,24.8,11.2,10.9,5.5,13.3,16,16.5,27.2s10.9,19.4,15.7,29.7,11.5,19.9,17.1,30C521.7,656.3,532.8,666.4,543.5,661.8Z" transform="translate(-199.5 -150.1)"/><path class="cls-3" d="M601.1,436.6c-5.7-8.9-14.4-14.1-24.2-17.6-19.5-6.8-39.3-10.6-60.1-6.5-26.5,5.1-53.1,9.7-79.7,14.3-6,1-12.2,1.1-18.2,1.5l-1.4-2c9.9-9,18.6-20,30-26.3,13.7-7.5,29.7-11,44.7-16.1,27.7-9.3,56.3-6.4,84.5-5.3,34.4,1.3,67.2,10.5,96.4,28.5,12.4,7.7,22.6,18.9,33.4,28.9,1,1-.4,6.3-2.3,8.1-24.1,22.3-52.5,33.5-85.9,28.9-12.7-1.7-25.3-5.3-37.6-9s-24.9-9.1-37.5-13.3-25.1-7.8-37.7-11.7c6.4-11.7,21.1-17.4,35.5-13.5s25.9,7.8,39,11.1c6.5,1.6,13.3,1.9,19.9,2.8Z" transform="translate(-199.5 -150.1)"/><path class="cls-4" d="M484.8,506.5c5.7,9,14.4,14.2,24.2,17.6,19.5,6.9,39.3,10.6,60.1,6.6,26.5-5.1,53.1-9.8,79.7-14.4,6-1,12.1-1,18.2-1.5l1.4,2.1c-9.9,8.9-18.6,20-30,26.3-13.7,7.5-29.7,11-44.7,16.1-27.7,9.3-56.3,6.3-84.5,5.3-34.4-1.3-67.2-10.5-96.4-28.6-12.4-7.7-22.6-18.8-33.4-28.9-1-.9.4-6.3,2.3-8,24.1-22.3,52.5-33.5,85.9-29,12.7,1.8,25.3,5.3,37.6,9.1s24.9,9,37.5,13.2,25.1,7.8,37.7,11.7c-6.5,11.8-21.1,17.5-35.5,13.6s-25.9-7.8-39-11.1c-6.5-1.7-13.3-2-20-2.9A23.3,23.3,0,0,1,484.8,506.5Z" transform="translate(-199.5 -150.1)"/><path class="cls-3" d="M313,768.1h25.2v3.2H317v14.5h18.4V789H317v15.6h21.1v3.2H313Z" transform="translate(-199.5 -150.1)"/><path class="cls-3" d="M343.8,778.3h3.6v5.9a12.8,12.8,0,0,1,4.1-4.8,10.2,10.2,0,0,1,5.7-1.6c4.8,0,7.8,2,8.8,6.2a11.4,11.4,0,0,1,4.1-4.6,11.7,11.7,0,0,1,6.2-1.6c3.1,0,5.5.9,7,2.7s2.4,4.5,2.4,8.1v19.2H382V788.9c0-2.8-.6-4.8-1.6-6.1a6.7,6.7,0,0,0-5.2-1.9,8.1,8.1,0,0,0-4.4,1.2,9.7,9.7,0,0,0-2.9,2.8,7.2,7.2,0,0,0-1.2,3v19.9h-3.8V788.4c0-2.6-.6-4.5-1.7-5.7s-2.7-1.8-5.1-1.8a7.7,7.7,0,0,0-4,1.1,9.7,9.7,0,0,0-2.8,2.9,9.9,9.9,0,0,0-1.6,3.8v19.1h-3.9Z" transform="translate(-199.5 -150.1)"/><path class="cls-3" d="M393.6,778.3h3.7v4.5a10.6,10.6,0,0,1,3.8-3.8,11.2,11.2,0,0,1,5.3-1.2,10.1,10.1,0,0,1,6,1.7,11.6,11.6,0,0,1,3.9,5.2,22.1,22.1,0,0,1,1.4,8.1v.5a21.6,21.6,0,0,1-1.4,8,11.9,11.9,0,0,1-3.9,5.3,10.1,10.1,0,0,1-6,1.8,11.1,11.1,0,0,1-5.2-1.2,10.1,10.1,0,0,1-3.8-3.3v15.2h-3.8Zm18,23.9c1.4-2,2.2-4.9,2.2-8.7v-.8q0-5.6-2.1-8.7a7,7,0,0,0-6-3.1,8.9,8.9,0,0,0-5.2,1.6,7.9,7.9,0,0,0-3.1,4.4V800a7.7,7.7,0,0,0,3.1,3.8,9.9,9.9,0,0,0,5.2,1.4A6.7,6.7,0,0,0,411.6,802.2Z" transform="translate(-199.5 -150.1)"/><path class="cls-3" d="M429.2,806.7a12.2,12.2,0,0,1-4.8-5,15.4,15.4,0,0,1-1.8-7.7v-1.4a16.6,16.6,0,0,1,1.4-7.4,12.4,12.4,0,0,1,11.8-7.4,12.9,12.9,0,0,1,7.2,1.9,11.7,11.7,0,0,1,4.5,5.3,16.7,16.7,0,0,1,1.6,7.6v.9a17.3,17.3,0,0,1-1.7,7.8,13.3,13.3,0,0,1-4.6,5.3,13,13,0,0,1-6.8,1.8A14.3,14.3,0,0,1,429.2,806.7Zm11.7-3a9.1,9.1,0,0,0,3.3-4.1,16.7,16.7,0,0,0,1.1-6.2v-.8a13.8,13.8,0,0,0-1.1-5.9,10,10,0,0,0-3.3-4.2,9.1,9.1,0,0,0-5.1-1.6,8.4,8.4,0,0,0-4.9,1.5,9.9,9.9,0,0,0-3.4,4.1,13.8,13.8,0,0,0-1.2,5.9v1.1a14.6,14.6,0,0,0,1.2,6,8.7,8.7,0,0,0,3.3,4.2,8.9,8.9,0,0,0,5.2,1.5A8.6,8.6,0,0,0,440.9,803.7Z" transform="translate(-199.5 -150.1)"/><path class="cls-3" d="M453,778.3h3.8l5,18.8,1.3,5.7,7.4-24.5h3l7.4,24.3,1.4-5.5,4.9-18.8H491l-8.1,29.5h-3.3l-6.3-19.9-1.3-4.5-1.2,4.5-6.3,19.9h-3.4Z" transform="translate(-199.5 -150.1)"/><path class="cls-3" d="M516.3,790.5v-.4a10,10,0,0,0-1-4.6,8.5,8.5,0,0,0-2.9-3.3,8,8,0,0,0-4.3-1.3,8.4,8.4,0,0,0-4.4,1.3,10.2,10.2,0,0,0-3.2,3.6,12.1,12.1,0,0,0-1.5,5.4v3.1a13.4,13.4,0,0,0,1.5,5.7,11.2,11.2,0,0,0,3.6,3.9,9.7,9.7,0,0,0,5,1.4,11.6,11.6,0,0,0,4.7-1,9.3,9.3,0,0,0,3.4-2.9l1.9,2.1a10.1,10.1,0,0,1-4.3,3.6,13.5,13.5,0,0,1-17.8-5.7,15.9,15.9,0,0,1-1.8-7.7v-1a17.3,17.3,0,0,1,1.6-7.6,13.1,13.1,0,0,1,4.5-5.4,12.2,12.2,0,0,1,6.8-1.9,11.8,11.8,0,0,1,6.3,1.6,10.5,10.5,0,0,1,4.1,4.7,15.4,15.4,0,0,1,1.5,7v2H498.3v-2.6Z" transform="translate(-199.5 -150.1)"/><path class="cls-3" d="M526,778.3h3.6v5.4a10.4,10.4,0,0,1,3.5-4.4,8.9,8.9,0,0,1,5.2-1.5,6.9,6.9,0,0,1,2.2.3v3.5a7.2,7.2,0,0,0-2.2-.2,8,8,0,0,0-5.5,1.9,10.8,10.8,0,0,0-3,5.5v19H526Z" transform="translate(-199.5 -150.1)"/><path class="cls-3" d="M545.8,771.3a2.7,2.7,0,0,1-.7-1.8,2.8,2.8,0,0,1,.7-1.7,2.9,2.9,0,0,1,1.9-.7,3.2,3.2,0,0,1,1.9.7,2.3,2.3,0,0,1,.7,1.7,2.3,2.3,0,0,1-.7,1.8,2.9,2.9,0,0,1-3.8,0Zm-.1,7h3.9v29.5h-3.9Z" transform="translate(-199.5 -150.1)"/><path class="cls-3" d="M558.1,807.8V778.3h3.6v29.5Zm7.5-28.2a10.5,10.5,0,0,1,5.9-1.8c3.2,0,5.6.8,7.1,2.6s2.3,4.6,2.4,8.3v19.1h-3.9V788.7c0-2.7-.5-4.6-1.6-5.9a6.7,6.7,0,0,0-5.2-1.9,7.7,7.7,0,0,0-3.9,1.1,8.8,8.8,0,0,0-3,2.8,13,13,0,0,0-1.8,4.3v-4.4A11,11,0,0,1,565.6,779.6Z" transform="translate(-199.5 -150.1)"/><path class="cls-3" d="M604.5,807a10.9,10.9,0,0,1-5.5,1.3,10.1,10.1,0,0,1-6-1.8,11.4,11.4,0,0,1-3.9-5.3,20.2,20.2,0,0,1-1.4-8.1v-.4a19.7,19.7,0,0,1,1.4-8,11.6,11.6,0,0,1,3.9-5.2,10.4,10.4,0,0,1,6.1-1.7,10.6,10.6,0,0,1,5.6,1.4,11.3,11.3,0,0,1,3.9,4.2l-.3,4.2a9.4,9.4,0,0,0-3.1-5,8.5,8.5,0,0,0-5.4-1.7,7.2,7.2,0,0,0-6.2,3.2c-1.4,2.1-2.1,5.2-2.1,9.2a16.7,16.7,0,0,0,1,6.3,8.4,8.4,0,0,0,2.8,4.1,6.9,6.9,0,0,0,4.5,1.4,9.5,9.5,0,0,0,5.4-1.5,7.6,7.6,0,0,0,3-4.2l.2,3.9A9.3,9.3,0,0,1,604.5,807Zm3.7-23.5v-5.2h3.6v28.8a13.9,13.9,0,0,1-1.3,6.1,9.9,9.9,0,0,1-4,4.6,12.8,12.8,0,0,1-7,1.8,13.9,13.9,0,0,1-5.7-1.2,11.8,11.8,0,0,1-4.4-3.5l1.9-2.4a12.4,12.4,0,0,0,3.5,3.1,10.6,10.6,0,0,0,4.5,1,8.4,8.4,0,0,0,6.4-2.4c1.5-1.6,2.2-3.9,2.2-6.9v-21Z" transform="translate(-199.5 -150.1)"/><path class="cls-3" d="M632.9,806.4a14.9,14.9,0,0,1-5.8-6.1A19.4,19.4,0,0,1,625,791v-5.8a20.2,20.2,0,0,1,1.7-8.9,14.4,14.4,0,0,1,13.7-8.8,18.8,18.8,0,0,1,7.4,1.4,11.9,11.9,0,0,1,5,4.1,13.7,13.7,0,0,1,2.3,6.5h-3.8a10.3,10.3,0,0,0-3.4-6.5,11.4,11.4,0,0,0-7.4-2.2,10.4,10.4,0,0,0-6.1,1.8,10.8,10.8,0,0,0-4.1,5,19.8,19.8,0,0,0-1.4,7.6v5.1a19.7,19.7,0,0,0,1.5,8,10.6,10.6,0,0,0,4.3,5,11.2,11.2,0,0,0,6.4,1.8,20,20,0,0,0,6.1-.9,8.8,8.8,0,0,0,4-2.4v-9.9H640.7v-3h14.4v14.5a10.3,10.3,0,0,1-3.3,2.6,26.3,26.3,0,0,1-5,1.8,28.8,28.8,0,0,1-5.9.6A16.4,16.4,0,0,1,632.9,806.4Z" transform="translate(-199.5 -150.1)"/><path class="cls-3" d="M663.8,771.3a2.3,2.3,0,0,1-.7-1.8,2.3,2.3,0,0,1,.7-1.7,2.9,2.9,0,0,1,1.8-.7,2.9,2.9,0,0,1,1.9.7,2.5,2.5,0,0,1,.8,1.7,2.3,2.3,0,0,1-.7,1.8,3.2,3.2,0,0,1-2,.7A2.9,2.9,0,0,1,663.8,771.3Zm-.1,7h3.9v29.5h-3.9Z" transform="translate(-199.5 -150.1)"/><path class="cls-3" d="M676.1,778.3h3.6v5.4a9.5,9.5,0,0,1,3.4-4.4,9.1,9.1,0,0,1,5.2-1.5,7.5,7.5,0,0,1,2.3.3l-.2,3.5a6.8,6.8,0,0,0-2.2-.2,8,8,0,0,0-5.5,1.9,10,10,0,0,0-2.9,5.5v19h-3.8Z" transform="translate(-199.5 -150.1)"/><path class="cls-3" d="M695.9,765.9h3.8v41.9h-3.8Z" transform="translate(-199.5 -150.1)"/><path class="cls-3" d="M712.2,807.3a9.5,9.5,0,0,1-4.2-3.1,7.1,7.1,0,0,1-1.5-4.4h3.6a5,5,0,0,0,2.3,4.2,10,10,0,0,0,5.8,1.5,9.2,9.2,0,0,0,3.8-.7,5.9,5.9,0,0,0,2.6-1.9,4,4,0,0,0,1-2.6,4.6,4.6,0,0,0-2.1-3.8,15.3,15.3,0,0,0-6.1-2.3,23.6,23.6,0,0,1-5.7-1.9,8.8,8.8,0,0,1-3.2-2.7,7,7,0,0,1-1-3.8,6.8,6.8,0,0,1,1.3-4.2,9.2,9.2,0,0,1,3.8-2.8,13.2,13.2,0,0,1,5.5-1,15.9,15.9,0,0,1,5.9,1,9.5,9.5,0,0,1,3.9,3.1,7.5,7.5,0,0,1,1.4,4.7h-3.8a5.4,5.4,0,0,0-.9-3.1,7.3,7.3,0,0,0-2.7-2.2,9.4,9.4,0,0,0-3.9-.7,10.6,10.6,0,0,0-3.7.6,6.5,6.5,0,0,0-2.4,1.9,4.2,4.2,0,0,0-.8,2.6,3.7,3.7,0,0,0,1.2,2.9,9.9,9.9,0,0,0,3.2,1.8,44.6,44.6,0,0,0,4.8,1.3c3.1.8,5.4,1.8,6.9,3.2a6.9,6.9,0,0,1,2.1,5.3,6.5,6.5,0,0,1-1.4,4.3,9.8,9.8,0,0,1-3.9,2.9,15.5,15.5,0,0,1-5.9,1A16.3,16.3,0,0,1,712.2,807.3Z" transform="translate(-199.5 -150.1)"/><path class="cls-5" d="M249.2,845.9h4.1v18.3h22.8V845.9h4V887h-4V867.6H253.3V887h-4.1Z" transform="translate(-199.5 -150.1)"/><path class="cls-5" d="M309.1,869.1v-.5a11.3,11.3,0,0,0-1.1-4.8,8.9,8.9,0,0,0-3-3.4,8.1,8.1,0,0,0-4.4-1.2,8.2,8.2,0,0,0-4.6,1.3,9.1,9.1,0,0,0-3.3,3.7,14.1,14.1,0,0,0-1.6,5.6V873a11.5,11.5,0,0,0,1.5,5.9,11,11,0,0,0,3.7,4,9.5,9.5,0,0,0,5.2,1.4,11.4,11.4,0,0,0,4.8-.9,10.3,10.3,0,0,0,3.6-3l2,2.1a12.7,12.7,0,0,1-4.5,3.8,14,14,0,0,1-18.4-5.9,16.3,16.3,0,0,1-1.9-8v-1.1a18.5,18.5,0,0,1,1.6-7.8,14.3,14.3,0,0,1,4.7-5.6,12.4,12.4,0,0,1,7.1-2.1,12.6,12.6,0,0,1,6.5,1.7,12.1,12.1,0,0,1,4.3,4.9,16.7,16.7,0,0,1,1.5,7.3v2.1H290.4v-2.7Z" transform="translate(-199.5 -150.1)"/><path class="cls-5" d="M319.4,843.6h4V887h-4Z" transform="translate(-199.5 -150.1)"/><path class="cls-5" d="M332.1,856.4H336V861a10.9,10.9,0,0,1,3.9-3.8,10.8,10.8,0,0,1,15.8,5.9,23,23,0,0,1,1.4,8.4v.5a22.7,22.7,0,0,1-1.4,8.2,12.3,12.3,0,0,1-4.1,5.5,9.9,9.9,0,0,1-6.2,1.9,11.9,11.9,0,0,1-5.4-1.2,10.1,10.1,0,0,1-3.9-3.5v15.8h-4Zm18.7,24.8c1.5-2.1,2.2-5.1,2.3-9v-.8c0-3.9-.7-6.9-2.2-9.1a7,7,0,0,0-6.2-3.1,9.5,9.5,0,0,0-5.4,1.5,8.6,8.6,0,0,0-3.2,4.6v13.6a8.4,8.4,0,0,0,3.2,4,10.3,10.3,0,0,0,5.4,1.4A7,7,0,0,0,350.8,881.2Z" transform="translate(-199.5 -150.1)"/><path class="cls-5" d="M364.6,849.2a2.5,2.5,0,0,1-.8-1.8,2.2,2.2,0,0,1,.8-1.8,2.9,2.9,0,0,1,3.8,0,1.9,1.9,0,0,1,.8,1.8,2.2,2.2,0,0,1-.8,1.8,3.3,3.3,0,0,1-3.8,0Zm-.1,7.2h4V887h-4Z" transform="translate(-199.5 -150.1)"/><path class="cls-5" d="M377.2,887V856.4H381V887Zm7.8-29.2a10.7,10.7,0,0,1,6.2-2c3.2,0,5.7,1,7.3,2.8s2.4,4.8,2.4,8.6V887H397V867.2c0-2.8-.6-4.8-1.7-6.1s-2.9-1.9-5.4-1.9a7.7,7.7,0,0,0-4,1,8.9,8.9,0,0,0-3.1,3,11.8,11.8,0,0,0-1.9,4.4l-.2-4.6A12.3,12.3,0,0,1,385,857.8Z" transform="translate(-199.5 -150.1)"/><path class="cls-5" d="M425.3,886.2a11.4,11.4,0,0,1-5.7,1.3,10.3,10.3,0,0,1-6.2-1.9,12,12,0,0,1-4.1-5.4,21.8,21.8,0,0,1-1.4-8.4v-.4a20.9,20.9,0,0,1,1.4-8.3,11.5,11.5,0,0,1,4.1-5.4,11.7,11.7,0,0,1,12.1-.4,11.6,11.6,0,0,1,4.1,4.4l-.4,4.3a8.9,8.9,0,0,0-3.2-5.1,8.3,8.3,0,0,0-5.6-1.7,7.3,7.3,0,0,0-6.3,3.2c-1.5,2.2-2.3,5.4-2.3,9.6a18,18,0,0,0,1.1,6.5,8.5,8.5,0,0,0,2.9,4.3,7.8,7.8,0,0,0,4.6,1.4,10,10,0,0,0,5.6-1.5,8.7,8.7,0,0,0,3.2-4.5v4.1A10,10,0,0,1,425.3,886.2Zm3.9-24.4v-5.4H433v29.8a15.3,15.3,0,0,1-1.4,6.4,11.1,11.1,0,0,1-4.1,4.8,13.6,13.6,0,0,1-7.3,1.8,13,13,0,0,1-10.4-4.9l1.9-2.5a12.2,12.2,0,0,0,3.7,3.2,9.7,9.7,0,0,0,4.6,1q4.3,0,6.6-2.4c1.6-1.7,2.3-4.1,2.3-7.2V864.7Z" transform="translate(-199.5 -150.1)"/><path class="cls-5" d="M459.5,885.8a14.8,14.8,0,0,1-5.9-6c-1.6-2.7-2.4-6.4-2.4-10.8v-5.1a24.6,24.6,0,0,1,1.6-8.9,17,17,0,0,1,5.1-7,14.3,14.3,0,0,1,8.9-2.7,17.8,17.8,0,0,1,7.8,1.6,12.5,12.5,0,0,1,5.3,4.6,17,17,0,0,1,2.3,7.4h-4.1a11.5,11.5,0,0,0-3.3-7.7c-1.9-1.7-4.6-2.5-8-2.5a10.8,10.8,0,0,0-6.2,1.8,11.9,11.9,0,0,0-4,5.2,22.1,22.1,0,0,0-1.4,8.1v5.1a21.9,21.9,0,0,0,1.4,8.2,11.9,11.9,0,0,0,4,5.2,10.8,10.8,0,0,0,6.2,1.8c3.4,0,6.1-.8,8-2.5s3-4.2,3.3-7.6h4.1a17.8,17.8,0,0,1-2,6.8,12.7,12.7,0,0,1-5.1,4.9,17.3,17.3,0,0,1-15.6.1Z" transform="translate(-199.5 -150.1)"/><path class="cls-5" d="M494.5,885.8a11.7,11.7,0,0,1-5-5.1,17,17,0,0,1-1.9-8.1v-1.3a16.3,16.3,0,0,1,1.5-7.7,12.3,12.3,0,0,1,4.7-5.6,13.3,13.3,0,0,1,7.5-2.2,13.6,13.6,0,0,1,7.4,2,13.5,13.5,0,0,1,4.8,5.5,19.9,19.9,0,0,1,1.6,7.9v1a17.9,17.9,0,0,1-1.8,8.1,12.6,12.6,0,0,1-4.8,5.4,12.9,12.9,0,0,1-7,1.9A13.8,13.8,0,0,1,494.5,885.8Zm12-3a10,10,0,0,0,3.5-4.3,16.2,16.2,0,0,0,1.2-6.4v-.8a15.2,15.2,0,0,0-1.2-6.2,10.1,10.1,0,0,0-3.4-4.4,9.6,9.6,0,0,0-5.3-1.5,9,9,0,0,0-5.1,1.5,10.4,10.4,0,0,0-3.5,4.2,14.8,14.8,0,0,0-1.2,6.1v1.2a15.2,15.2,0,0,0,1.2,6.2,9.8,9.8,0,0,0,3.4,4.3,9.6,9.6,0,0,0,5.4,1.6A8.4,8.4,0,0,0,506.5,882.8Z" transform="translate(-199.5 -150.1)"/><path class="cls-5" d="M521.3,856.4h3.8v6.2a11.5,11.5,0,0,1,4.2-5,10.5,10.5,0,0,1,5.9-1.8c5,0,8,2.2,9.1,6.5a10.9,10.9,0,0,1,4.3-4.7,11.7,11.7,0,0,1,6.4-1.8c3.2,0,5.6,1,7.2,2.9s2.5,4.7,2.5,8.4V887h-3.9V867.4c0-2.9-.6-5-1.7-6.3a6.5,6.5,0,0,0-5.4-1.9,8.4,8.4,0,0,0-4.5,1.2,8.1,8.1,0,0,0-3,2.8,8.3,8.3,0,0,0-1.3,3.2V887h-3.9V866.9c-.1-2.7-.6-4.6-1.7-5.9s-2.9-1.8-5.3-1.8a7,7,0,0,0-4.1,1.1,8.3,8.3,0,0,0-3,2.9,11.3,11.3,0,0,0-1.7,3.9V887h-4Z" transform="translate(-199.5 -150.1)"/><path class="cls-5" d="M572.7,856.4h3.7v6.2a12.5,12.5,0,0,1,4.3-5,10.3,10.3,0,0,1,5.9-1.8c5,0,8,2.2,9.1,6.5a10.9,10.9,0,0,1,4.3-4.7,11.3,11.3,0,0,1,6.3-1.8c3.3,0,5.7,1,7.3,2.9s2.4,4.7,2.4,8.4V887h-3.9V867.4c0-2.9-.5-5-1.7-6.3a6.3,6.3,0,0,0-5.3-1.9,8.4,8.4,0,0,0-4.5,1.2,9.3,9.3,0,0,0-3.1,2.8,8,8,0,0,0-1.2,3.2V887h-3.9V866.9c-.1-2.7-.6-4.6-1.8-5.9s-2.8-1.8-5.2-1.8a7.3,7.3,0,0,0-4.2,1.1,9.2,9.2,0,0,0-3,2.9,13.4,13.4,0,0,0-1.6,3.9V887h-4Z" transform="translate(-199.5 -150.1)"/><path class="cls-5" d="M626.7,884.7c-1.7-1.9-2.5-4.8-2.6-8.6V856.4h4v19.8c0,2.6.6,4.7,1.8,6a6.6,6.6,0,0,0,5.3,2.1,9.8,9.8,0,0,0,6.1-1.8,7.9,7.9,0,0,0,2.8-5.3l.3,4.9a9.4,9.4,0,0,1-3.9,4,12.1,12.1,0,0,1-6.2,1.5C631,887.6,628.4,886.6,626.7,884.7Zm17.4-2.7-.2-3.4V856.4h4V887h-3.7Z" transform="translate(-199.5 -150.1)"/><path class="cls-5" d="M656.2,887V856.4H660V887Zm7.8-29.2a10.7,10.7,0,0,1,6.2-2c3.3,0,5.7,1,7.3,2.8s2.4,4.8,2.4,8.6V887H676V867.2c0-2.8-.6-4.8-1.7-6.1s-2.9-1.9-5.4-1.9a7.7,7.7,0,0,0-4,1,8.9,8.9,0,0,0-3.1,3,11.8,11.8,0,0,0-1.9,4.4l-.2-4.6A12.3,12.3,0,0,1,664,857.8Z" transform="translate(-199.5 -150.1)"/><path class="cls-5" d="M688.7,849.2a2.5,2.5,0,0,1-.8-1.8,2.2,2.2,0,0,1,.8-1.8,2.5,2.5,0,0,1,1.9-.7,2.9,2.9,0,0,1,2,.7,2.1,2.1,0,0,1,.7,1.8,2.4,2.4,0,0,1-.7,1.8,3.2,3.2,0,0,1-2,.6A2.9,2.9,0,0,1,688.7,849.2Zm-.1,7.2h4V887h-4Z" transform="translate(-199.5 -150.1)"/><path class="cls-5" d="M713.5,859.5H698.1v-3.1h15.4ZM708.1,883a3.8,3.8,0,0,0,3.2,1.3l2.8-.3v3.1a12.5,12.5,0,0,1-3.8.5c-2.5,0-4.4-.7-5.5-2s-1.7-3.4-1.8-6.2V848.3h4v30.5C707.1,880.8,707.4,882.1,708.1,883Z" transform="translate(-199.5 -150.1)"/><path class="cls-5" d="M720.6,849.2a2.5,2.5,0,0,1-.8-1.8,2.2,2.2,0,0,1,.8-1.8,2.9,2.9,0,0,1,3.8,0,1.9,1.9,0,0,1,.8,1.8,2.4,2.4,0,0,1-.7,1.8,3.2,3.2,0,0,1-2,.6A2.9,2.9,0,0,1,720.6,849.2Zm-.1,7.2h4V887h-4Z" transform="translate(-199.5 -150.1)"/><path class="cls-5" d="M753.1,869.1v-.5a11.2,11.2,0,0,0-1-4.8,8.9,8.9,0,0,0-3-3.4,8.7,8.7,0,0,0-9,.1,9.1,9.1,0,0,0-3.3,3.7,14.1,14.1,0,0,0-1.6,5.6V873a11.5,11.5,0,0,0,1.5,5.9,11,11,0,0,0,3.7,4,9.5,9.5,0,0,0,5.2,1.4,11.7,11.7,0,0,0,4.8-.9,10.3,10.3,0,0,0,3.6-3l2,2.1a12.7,12.7,0,0,1-4.5,3.8,13.8,13.8,0,0,1-6.2,1.3,13.5,13.5,0,0,1-7.1-1.9,13,13,0,0,1-5.1-5.3,16.3,16.3,0,0,1-1.9-8v-1.1a18.5,18.5,0,0,1,1.6-7.8,14.3,14.3,0,0,1,4.7-5.6,12.4,12.4,0,0,1,7.1-2.1,11.3,11.3,0,0,1,10.8,6.6,16.7,16.7,0,0,1,1.5,7.3v2.1H734.5v-2.7Z" transform="translate(-199.5 -150.1)"/><path class="cls-5" d="M767.3,886.5a10.3,10.3,0,0,1-4.3-3.2,7.2,7.2,0,0,1-1.6-4.7h3.7a4.9,4.9,0,0,0,2.4,4.4,9.9,9.9,0,0,0,6,1.6,10.2,10.2,0,0,0,4-.7,7.9,7.9,0,0,0,2.7-2,4.4,4.4,0,0,0,.9-2.7,4.7,4.7,0,0,0-2.1-3.9,14.3,14.3,0,0,0-6.3-2.4,26.2,26.2,0,0,1-6-2,8.5,8.5,0,0,1-3.3-2.8,8.2,8.2,0,0,1-1-4,6.8,6.8,0,0,1,1.4-4.2,8.8,8.8,0,0,1,3.8-3,14.8,14.8,0,0,1,5.7-1.1,14.4,14.4,0,0,1,6.1,1.2,9.6,9.6,0,0,1,4.2,3.1A8.8,8.8,0,0,1,785,865h-4a5.7,5.7,0,0,0-.9-3.2,6.2,6.2,0,0,0-2.8-2.2,8.4,8.4,0,0,0-4-.8,8.9,8.9,0,0,0-3.8.7,4.9,4.9,0,0,0-2.5,1.9,4.4,4.4,0,0,0-.9,2.7,3.8,3.8,0,0,0,1.3,3,8.8,8.8,0,0,0,3.3,1.8,47.2,47.2,0,0,0,5,1.4,16.2,16.2,0,0,1,7.1,3.3,6.9,6.9,0,0,1,2.2,5.5,6.7,6.7,0,0,1-1.5,4.4,8.6,8.6,0,0,1-4.1,3,15.7,15.7,0,0,1-6,1.1A17,17,0,0,1,767.3,886.5Z" transform="translate(-199.5 -150.1)"/><path d="M316.2,923h-13v-3h29.6v3H319.9v34.6h-3.7Z" transform="translate(-199.5 -150.1)"/><path d="M338,929.6h3.4v5.2a9.1,9.1,0,0,1,3.2-4.2,8.4,8.4,0,0,1,5-1.5,6.6,6.6,0,0,1,2.1.3v3.3l-2.1-.2a7.7,7.7,0,0,0-5.2,1.9,9.1,9.1,0,0,0-2.8,5.1v18.1H338Z" transform="translate(-199.5 -150.1)"/><path d="M358.8,957.1a8,8,0,0,1-3.2-2.8,7.8,7.8,0,0,1-1.1-4.1,6.8,6.8,0,0,1,1.6-4.6,9.6,9.6,0,0,1,4.4-3,19.9,19.9,0,0,1,6.8-1H373v-3.4a5.9,5.9,0,0,0-1.8-4.6,7.6,7.6,0,0,0-5.2-1.7,8.7,8.7,0,0,0-3.7.8,5.2,5.2,0,0,0-2.6,2,4.8,4.8,0,0,0-.9,2.9h-3.6a6.8,6.8,0,0,1,1.5-4.3,9.5,9.5,0,0,1,3.9-3.1,14.2,14.2,0,0,1,5.5-1.1,13.1,13.1,0,0,1,5.5,1.1,7.3,7.3,0,0,1,3.6,3.1,9.1,9.1,0,0,1,1.4,4.8v13c0,3,.3,5,.9,6.2v.3h-3.8a16.6,16.6,0,0,1-.6-4.4,9.5,9.5,0,0,1-4.1,3.6,11.3,11.3,0,0,1-5.6,1.3A9.7,9.7,0,0,1,358.8,957.1Zm10.7-3.3a8.3,8.3,0,0,0,3.5-3.9V944h-5.3a18.6,18.6,0,0,0-4.8.6,8.1,8.1,0,0,0-3.5,2,5.4,5.4,0,0,0-.6,6.2,6.3,6.3,0,0,0,2.1,1.8,7.8,7.8,0,0,0,3.1.6A9.6,9.6,0,0,0,369.5,953.8Z" transform="translate(-199.5 -150.1)"/><path d="M384.3,957.6v-28h3.5v28Zm7.2-26.7a9.4,9.4,0,0,1,5.6-1.8c3,0,5.2.9,6.7,2.6s2.2,4.3,2.2,7.8v18.1h-3.6V939.5c0-2.6-.5-4.4-1.5-5.6a6.4,6.4,0,0,0-5-1.8,8.1,8.1,0,0,0-6.5,3.7,12.1,12.1,0,0,0-1.7,4v-4.1A10.4,10.4,0,0,1,391.5,930.9Z" transform="translate(-199.5 -150.1)"/><path d="M417.4,957.1a10.1,10.1,0,0,1-4-2.9,7.4,7.4,0,0,1-1.4-4.3h3.3a4.8,4.8,0,0,0,2.2,4,9.2,9.2,0,0,0,5.5,1.5,8.7,8.7,0,0,0,3.7-.7,4.9,4.9,0,0,0,2.4-1.8,3.6,3.6,0,0,0,.9-2.4,4.1,4.1,0,0,0-1.9-3.6,14.3,14.3,0,0,0-5.8-2.2,18.7,18.7,0,0,1-5.4-1.9,6.9,6.9,0,0,1-3-2.5,6.1,6.1,0,0,1-1-3.6,5.9,5.9,0,0,1,1.3-3.9,7.4,7.4,0,0,1,3.5-2.7,12.1,12.1,0,0,1,5.2-1,14,14,0,0,1,5.6,1,9.1,9.1,0,0,1,3.7,2.9,7.4,7.4,0,0,1,1.4,4.4h-3.7a6,6,0,0,0-.8-2.9,7.1,7.1,0,0,0-2.5-2,8.7,8.7,0,0,0-3.7-.7,9.1,9.1,0,0,0-3.5.6,4.7,4.7,0,0,0-2.3,1.8,3.6,3.6,0,0,0-.8,2.5,3.4,3.4,0,0,0,1.2,2.7,10.7,10.7,0,0,0,3,1.7l4.6,1.2a14.1,14.1,0,0,1,6.4,3,6.9,6.9,0,0,1,.7,9.1,8,8,0,0,1-3.7,2.7,13.5,13.5,0,0,1-5.5,1A14,14,0,0,1,417.4,957.1Z" transform="translate(-199.5 -150.1)"/><path d="M442.2,932.4h-4.7v-2.8h4.7v-3.4a9.3,9.3,0,0,1,2.2-6.5,7.6,7.6,0,0,1,6-2.3,13.7,13.7,0,0,1,3.6.4v2.9a11.4,11.4,0,0,0-2.8-.3,5,5,0,0,0-3.9,1.5,5.7,5.7,0,0,0-1.4,4.3v3.4h6.8v2.8h-6.8v25.2h-3.6Z" transform="translate(-199.5 -150.1)"/><path d="M462.1,956.5a11,11,0,0,1-4.6-4.7,16.4,16.4,0,0,1-1.8-7.3v-1.3a17.5,17.5,0,0,1,1.4-7,12.2,12.2,0,0,1,4.3-5.2,11.9,11.9,0,0,1,6.9-1.9,12.5,12.5,0,0,1,6.8,1.8,11.7,11.7,0,0,1,4.3,5,17.2,17.2,0,0,1,1.5,7.2v.9a17.2,17.2,0,0,1-1.6,7.4,12.7,12.7,0,0,1-4.4,5,12.9,12.9,0,0,1-6.5,1.7A12.3,12.3,0,0,1,462.1,956.5Zm11-2.8a9.5,9.5,0,0,0,3.1-3.9,15,15,0,0,0,1.1-5.8v-.8a14.8,14.8,0,0,0-1.1-5.7,9.3,9.3,0,0,0-3.1-3.9,8.1,8.1,0,0,0-4.8-1.5,8.4,8.4,0,0,0-4.7,1.4,9,9,0,0,0-3.1,3.8,13.2,13.2,0,0,0-1.2,5.7v1a14.8,14.8,0,0,0,1.1,5.7,8.7,8.7,0,0,0,3.1,3.9,8.1,8.1,0,0,0,4.9,1.5A8.4,8.4,0,0,0,473.1,953.7Z" transform="translate(-199.5 -150.1)"/><path d="M486.8,929.6h3.4v5.2a9.1,9.1,0,0,1,3.2-4.2,8.4,8.4,0,0,1,5-1.5,6.6,6.6,0,0,1,2.1.3v3.3l-2.1-.2a7.7,7.7,0,0,0-5.2,1.9,9.1,9.1,0,0,0-2.8,5.1v18.1h-3.6Z" transform="translate(-199.5 -150.1)"/><path d="M505,929.6h3.4v5.6a12.3,12.3,0,0,1,3.9-4.5,9.3,9.3,0,0,1,5.4-1.6c4.5,0,7.3,2,8.3,5.9a10.2,10.2,0,0,1,3.9-4.3,10.6,10.6,0,0,1,5.8-1.6c3,0,5.2.9,6.7,2.6s2.2,4.3,2.2,7.7v18.2h-3.6v-18q0-3.9-1.5-5.7c-1-1.2-2.7-1.8-4.9-1.8a7.8,7.8,0,0,0-4.1,1.1,7.3,7.3,0,0,0-2.8,2.7,7.8,7.8,0,0,0-1.2,2.9v18.8h-3.6V939.2c-.1-2.5-.6-4.2-1.6-5.4a6.2,6.2,0,0,0-4.8-1.7,7,7,0,0,0-3.8,1.1,7.5,7.5,0,0,0-2.7,2.6,9.7,9.7,0,0,0-1.6,3.6v18.2H505Z" transform="translate(-199.5 -150.1)"/><path d="M552.5,923a2.4,2.4,0,0,1-.6-1.7,2.3,2.3,0,0,1,.6-1.6,3,3,0,0,1,3.6,0,2,2,0,0,1,.7,1.6,2.1,2.1,0,0,1-.7,1.7,3,3,0,0,1-3.6,0Zm0,6.6h3.6v28h-3.6Z" transform="translate(-199.5 -150.1)"/><path d="M564.1,957.6v-28h3.4l.2,8.7v19.3Zm7.1-26.7a9.7,9.7,0,0,1,5.7-1.8c3,0,5.2.9,6.6,2.6s2.2,4.3,2.3,7.8v18.1h-3.6V939.5c0-2.6-.5-4.4-1.6-5.6s-2.6-1.8-4.9-1.8a7.9,7.9,0,0,0-3.7,1,8,8,0,0,0-2.8,2.7,10.3,10.3,0,0,0-1.7,4l-.2-4.1A11.8,11.8,0,0,1,571.2,930.9Z" transform="translate(-199.5 -150.1)"/><path d="M608.1,956.8a10,10,0,0,1-5.2,1.3,9.2,9.2,0,0,1-5.7-1.8,10.9,10.9,0,0,1-3.8-5,21.5,21.5,0,0,1-1.3-7.6v-.4a21.5,21.5,0,0,1,1.3-7.6,11.2,11.2,0,0,1,3.8-4.9,9.8,9.8,0,0,1,5.7-1.7,10.2,10.2,0,0,1,5.3,1.4,9.8,9.8,0,0,1,3.8,4l-.4,3.9a7.8,7.8,0,0,0-8-6.3,6.7,6.7,0,0,0-5.8,3c-1.4,2-2,4.9-2,8.8a17.4,17.4,0,0,0,.9,5.9,8.1,8.1,0,0,0,2.7,3.9,6.6,6.6,0,0,0,4.2,1.3,8.5,8.5,0,0,0,5.1-1.4,7.2,7.2,0,0,0,2.9-4.1v3.8A9.3,9.3,0,0,1,608.1,956.8Zm3.5-22.3v-4.9h3.4v27.3a14,14,0,0,1-1.2,5.8A9.5,9.5,0,0,1,610,967a11.2,11.2,0,0,1-6.6,1.7,12.5,12.5,0,0,1-5.4-1.2,11.1,11.1,0,0,1-4.1-3.3l1.7-2.2a11.2,11.2,0,0,0,3.4,2.9,9.3,9.3,0,0,0,4.2.9,8.2,8.2,0,0,0,6.1-2.2,9.2,9.2,0,0,0,2.1-6.5V937.2Z" transform="translate(-199.5 -150.1)"/><path d="M637.8,920h3.7v34.5h18.2v3.1H637.8Z" transform="translate(-199.5 -150.1)"/><path d="M665.3,923a2.4,2.4,0,0,1-.7-1.7,2.4,2.4,0,0,1,.7-1.6,3,3,0,0,1,3.6,0,2.4,2.4,0,0,1,.7,1.6,2.1,2.1,0,0,1-.7,1.7,3,3,0,0,1-3.6,0Zm-.1,6.6h3.7v28h-3.7Z" transform="translate(-199.5 -150.1)"/><path d="M673.9,929.6h3.8l8.3,23.3,8.4-23.3h3.8l-10.3,28h-3.7Z" transform="translate(-199.5 -150.1)"/><path d="M721,941.2v-.4a9.2,9.2,0,0,0-1-4.4,7.4,7.4,0,0,0-2.7-3.1,7,7,0,0,0-4-1.2,7.4,7.4,0,0,0-4.2,1.2,9.3,9.3,0,0,0-3.1,3.4,13.7,13.7,0,0,0-1.4,5.1v3a11.2,11.2,0,0,0,1.3,5.3,10.4,10.4,0,0,0,3.5,3.7,8.5,8.5,0,0,0,4.7,1.3,9.9,9.9,0,0,0,4.4-.9,9.2,9.2,0,0,0,3.3-2.7l1.8,2a10.4,10.4,0,0,1-4.1,3.4,13.2,13.2,0,0,1-5.7,1.2,12.8,12.8,0,0,1-6.4-1.7,13.3,13.3,0,0,1-4.8-4.9,15.4,15.4,0,0,1-1.7-7.3v-1a16.7,16.7,0,0,1,1.5-7.1,13.4,13.4,0,0,1,4.3-5.1,11.1,11.1,0,0,1,6.5-1.9,10.7,10.7,0,0,1,5.9,1.6,9.9,9.9,0,0,1,3.9,4.4,15.3,15.3,0,0,1,1.4,6.6v2H704v-2.5Z" transform="translate(-199.5 -150.1)"/><path d="M733.9,957.1a9.1,9.1,0,0,1-3.9-2.9,6.8,6.8,0,0,1-1.5-4.3h3.4a4.8,4.8,0,0,0,2.2,4,9.2,9.2,0,0,0,5.5,1.5,8.3,8.3,0,0,0,3.6-.7,5.2,5.2,0,0,0,2.5-1.8,3.5,3.5,0,0,0,.8-2.4,4.1,4.1,0,0,0-1.9-3.6,13.8,13.8,0,0,0-5.7-2.2,19.5,19.5,0,0,1-5.5-1.9,6.9,6.9,0,0,1-3-2.5,6.9,6.9,0,0,1-.9-3.6,6.5,6.5,0,0,1,1.2-3.9,7.9,7.9,0,0,1,3.5-2.7,12.9,12.9,0,0,1,5.3-1,13.5,13.5,0,0,1,5.5,1,9.4,9.4,0,0,1,3.8,2.9,7.4,7.4,0,0,1,1.3,4.4h-3.6a5.2,5.2,0,0,0-.9-2.9,6.3,6.3,0,0,0-2.5-2,8.7,8.7,0,0,0-3.7-.7,9.5,9.5,0,0,0-3.5.6,4.7,4.7,0,0,0-2.3,1.8,4.1,4.1,0,0,0-.8,2.5,3.4,3.4,0,0,0,1.2,2.7,10.7,10.7,0,0,0,3,1.7l4.6,1.2a14.6,14.6,0,0,1,6.5,3,6.8,6.8,0,0,1,2,5.1,6.4,6.4,0,0,1-1.3,4,8.3,8.3,0,0,1-3.8,2.7,13.5,13.5,0,0,1-5.5,1A14.7,14.7,0,0,1,733.9,957.1Z" transform="translate(-199.5 -150.1)"/><path class="cls-6" d="M231.4,453.3l-31.9-4.4,2.2-16.3c.6-4.2,1.8-7.3,3.6-9.1a7.3,7.3,0,0,1,6.5-2.3,7.4,7.4,0,0,1,4.1,1.9,8.8,8.8,0,0,1,2.4,4.1,13.2,13.2,0,0,1,.3,5.7l-2-1.2a15.8,15.8,0,0,1,1.8-5.8,9.8,9.8,0,0,1,3.5-3.5,8,8,0,0,1,4.9-.7,7.5,7.5,0,0,1,6,4.2c1.2,2.5,1.6,5.8,1,10.1Zm-5.3-9.9,1-7.5a5.5,5.5,0,0,0-.3-3.7,2.4,2.4,0,0,0-2.2-1.5,2.5,2.5,0,0,0-2.6.9,5.7,5.7,0,0,0-1.3,3.4l-1.1,8.2-6.3-.9.9-6.8a4.9,4.9,0,0,0-.3-3.5,2.4,2.4,0,0,0-2.1-1.5,2.7,2.7,0,0,0-2.5.8,6.3,6.3,0,0,0-1.2,3.3l-.9,6.2Z" transform="translate(-199.5 -150.1)"/><path class="cls-6" d="M231.9,408.6l4.1-16.3,6.8,1.7-6.3,25.1-31.2-7.8,6.1-24.5,6.8,1.7-3.9,15.8Zm-12.5-2.4,3.6-14.5,6.6,1.6L226,407.8Z" transform="translate(-199.5 -150.1)"/><path class="cls-6" d="M246.8,382.6,234,377.9h5.8l-27.5,5.4,3.3-9.1,19.9-3.8-1.9,5.2-12.8-15.7,3-8.4,17.7,21.7-4.4-3.7,12.8,4.6Z" transform="translate(-199.5 -150.1)"/><path class="cls-6" d="M261.9,348a21.9,21.9,0,0,1-4.3,5.9,16.9,16.9,0,0,1-5.7,3.5,15.4,15.4,0,0,1-6.4,1,16.2,16.2,0,0,1-6.6-1.7,17,17,0,0,1-5.3-4.2,16.1,16.1,0,0,1-3.2-5.7,18.1,18.1,0,0,1-.6-6.6,20.6,20.6,0,0,1,2-7,19.9,19.9,0,0,1,4.3-5.8,15.5,15.5,0,0,1,5.7-3.5,17.2,17.2,0,0,1,6.4-1.1,16.3,16.3,0,0,1,6.6,1.8,16.1,16.1,0,0,1,5.4,4.2,17.6,17.6,0,0,1,3.1,5.7,18.1,18.1,0,0,1,.6,6.6A20.1,20.1,0,0,1,261.9,348Zm-6.8-3.3a8.3,8.3,0,0,0,1-3.4,9.5,9.5,0,0,0-.5-3.3,10,10,0,0,0-1.8-2.9,10.4,10.4,0,0,0-3.1-2.3,8.9,8.9,0,0,0-3.7-1,9.6,9.6,0,0,0-3.4.3,8.5,8.5,0,0,0-2.9,1.7,9.2,9.2,0,0,0-3,6.1,7.2,7.2,0,0,0,.4,3.3,9.2,9.2,0,0,0,1.8,3,12.3,12.3,0,0,0,3.1,2.2,11.1,11.1,0,0,0,3.7,1.1,7.6,7.6,0,0,0,3.4-.4,7.5,7.5,0,0,0,2.9-1.6A8.3,8.3,0,0,0,255.1,344.7Z" transform="translate(-199.5 -150.1)"/><path class="cls-6" d="M271.3,328.4l-26.9-17.7,4.1-6.3,27.7-3-2,3-17.9-11.8,5-7.5,26.8,17.8-4.1,6.2-27.7,3,2-2.9L276.2,321Z" transform="translate(-199.5 -150.1)"/><path class="cls-6" d="M291.4,298.4,267,277.5l9.8-11.6a22.4,22.4,0,0,1,7.6-5.8,15.4,15.4,0,0,1,8.4-1.2,16,16,0,0,1,8,3.8,16.6,16.6,0,0,1,5,7.3,15,15,0,0,1,.1,8.4,20.4,20.4,0,0,1-4.6,8.5Zm.4-11.6,3.8-4.4a10.7,10.7,0,0,0,2.3-4.3,7.3,7.3,0,0,0-.2-4.4,9.1,9.1,0,0,0-2.9-4,9.6,9.6,0,0,0-4.4-2.2,7.5,7.5,0,0,0-4.4.5,10.5,10.5,0,0,0-3.9,2.9l-3.7,4.4Z" transform="translate(-199.5 -150.1)"/><path class="cls-6" d="M335,252.8l-19.6-25.6,13.1-10c3.3-2.5,6.3-3.9,8.9-3.9a7.5,7.5,0,0,1,6.2,2.9,8.1,8.1,0,0,1,1.6,4.3,8.9,8.9,0,0,1-1.1,4.6,14.9,14.9,0,0,1-3.8,4.3l-.7-2.4a15.2,15.2,0,0,1,5.4-2.7,9.1,9.1,0,0,1,4.9-.1,7.8,7.8,0,0,1,4,3,7.3,7.3,0,0,1,1.3,7.2c-.8,2.6-3,5.2-6.4,7.8Zm3.1-10.7,6.1-4.6a6.9,6.9,0,0,0,2.3-2.8,2.5,2.5,0,0,0-.5-2.7,3,3,0,0,0-2.5-1.3,7,7,0,0,0-3.3,1.6l-6.5,5-3.9-5,5.5-4.2a6.2,6.2,0,0,0,2.3-2.7,2.6,2.6,0,0,0-.6-2.6,2.5,2.5,0,0,0-2.3-1.1,5.4,5.4,0,0,0-3.2,1.5l-4.9,3.8Z" transform="translate(-199.5 -150.1)"/><path class="cls-6" d="M376.8,224.4a20.1,20.1,0,0,1-6.8,2.5,18.8,18.8,0,0,1-6.7-.1,16.6,16.6,0,0,1-5.9-2.7,16.6,16.6,0,0,1-3.1-23.9,21.3,21.3,0,0,1,12.3-7.3,18.8,18.8,0,0,1,6.7.2,16.6,16.6,0,0,1,5.9,2.7,15.9,15.9,0,0,1,4.5,5.1,15.5,15.5,0,0,1,2.3,6.4,17.8,17.8,0,0,1-.6,6.5,16.8,16.8,0,0,1-3.1,5.9A19.8,19.8,0,0,1,376.8,224.4Zm-3.8-6.5a11.6,11.6,0,0,0,2.6-2.3,6.9,6.9,0,0,0,1.4-3,8.2,8.2,0,0,0,.1-3.5,8.7,8.7,0,0,0-1.3-3.6,8.9,8.9,0,0,0-2.5-2.9,8,8,0,0,0-3-1.6,7.7,7.7,0,0,0-3.4-.2,11,11,0,0,0-3.3,1.2,9.6,9.6,0,0,0-2.6,2.3,6.9,6.9,0,0,0-1.4,3,7.8,7.8,0,0,0-.1,3.4,10.5,10.5,0,0,0,1.3,3.6,8.9,8.9,0,0,0,2.5,2.9,8.4,8.4,0,0,0,3.1,1.6,7.4,7.4,0,0,0,3.3.2A8.6,8.6,0,0,0,373,217.9Z" transform="translate(-199.5 -150.1)"/><path class="cls-6" d="M395.5,213.2l-13-29.5,13.5-5.9a18.6,18.6,0,0,1,7.5-1.8,10.8,10.8,0,0,1,6.2,1.8,11.8,11.8,0,0,1,4.2,5.1,10.8,10.8,0,0,1,.9,6.5,11.1,11.1,0,0,1-2.9,5.7,19.4,19.4,0,0,1-6.4,4.3l-8.9,3.9,2.2-5.1,5,11.3Zm3.7-14.1-5.4-2.2,8.4-3.7a7,7,0,0,0,3.4-2.8,5,5,0,0,0-.1-3.8,4.9,4.9,0,0,0-2.7-2.6,6,6,0,0,0-4.4.6l-8.4,3.6,2.1-5.4Zm14.5,6.1-12.1-7.6,8.9-3.9,12.1,7.5Z" transform="translate(-199.5 -150.1)"/><path class="cls-6" d="M425.9,200l-9.4-30.8,14.6-4.4a21.1,21.1,0,0,1,9.5-.8,14,14,0,0,1,7.7,3.5A15.1,15.1,0,0,1,453,175a16.6,16.6,0,0,1,.3,8.8,16,16,0,0,1-4.4,7.2,21.3,21.3,0,0,1-8.4,4.6Zm6.6-9.6,5.5-1.6a11.8,11.8,0,0,0,4.3-2.4,8.4,8.4,0,0,0,2.2-3.9,10.6,10.6,0,0,0-2.8-9.1,7.2,7.2,0,0,0-3.9-1.9,9.3,9.3,0,0,0-4.9.4l-5.5,1.6Z" transform="translate(-199.5 -150.1)"/><path class="cls-6" d="M469.2,181.2l16.5-3,1.3,6.9-25.4,4.6-5.8-31.6,24.8-4.6,1.3,6.9-16,3Zm-3-12.4,14.8-2.7,1.2,6.7-14.7,2.7Z" transform="translate(-199.5 -150.1)"/><path class="cls-6" d="M491.2,184.5l-2.4-32.1,14.7-1.1a18.6,18.6,0,0,1,7.7.9,10.2,10.2,0,0,1,5.2,3.8,11.4,11.4,0,0,1,2.3,6.2,12.3,12.3,0,0,1-1.3,6.4,11.8,11.8,0,0,1-4.7,4.4,18,18,0,0,1-7.5,1.9l-9.6.7,3.8-4.1.9,12.4Zm8.2-12-4.3-3.9,9.1-.7a5.7,5.7,0,0,0,4.1-1.5,4.9,4.9,0,0,0-.5-6.9,6.1,6.1,0,0,0-4.3-1l-9.1.7,3.7-4.5Zm11.7,10.6L502.2,172l9.7-.7,8.9,11.1Z" transform="translate(-199.5 -150.1)"/><path class="cls-6" d="M535.7,183.5a31,31,0,0,1-7.6-1.2,21.6,21.6,0,0,1-5.9-2.8l3.2-6.6a22.5,22.5,0,0,0,4.9,2.5,18.9,18.9,0,0,0,5.6,1,9.6,9.6,0,0,0,3.1-.2,3.4,3.4,0,0,0,1.7-.9,3.1,3.1,0,0,0,.6-1.3,2,2,0,0,0-1-1.8,10.7,10.7,0,0,0-2.6-1.1l-3.5-1a29.1,29.1,0,0,1-3.9-1.2,10.6,10.6,0,0,1-3.5-1.8,7.2,7.2,0,0,1-2.5-2.7,7.4,7.4,0,0,1-.9-4.3,8.5,8.5,0,0,1,1.7-5.2,10.2,10.2,0,0,1,4.9-3.6,19.3,19.3,0,0,1,8-1.2,32,32,0,0,1,6.2.9,18.7,18.7,0,0,1,5.4,2.3l-3.1,6.6a29.5,29.5,0,0,0-4.5-2,16.1,16.1,0,0,0-4.3-.7,6.6,6.6,0,0,0-3,.3,3,3,0,0,0-1.7.9,2.2,2.2,0,0,0-.6,1.5,2,2,0,0,0,.9,1.7,12.7,12.7,0,0,0,2.6,1.1l3.6.9,3.9,1.2a14.2,14.2,0,0,1,3.5,1.7,9.5,9.5,0,0,1,2.5,2.8,8.3,8.3,0,0,1,.8,4.3,8.7,8.7,0,0,1-1.7,5.1,10.3,10.3,0,0,1-4.9,3.6A18.8,18.8,0,0,1,535.7,183.5Z" transform="translate(-199.5 -150.1)"/><path class="cls-6" d="M589.5,182.3l16.5,3.6-1.6,6.9-25.2-5.6,7-31.4,24.6,5.4-1.5,6.9-15.8-3.5Zm2.2-12.6,14.5,3.3-1.4,6.6-14.6-3.2Z" transform="translate(-199.5 -150.1)"/><path class="cls-6" d="M608.5,193.7l10.8-30.4,7,2.5,5.3,25.1-3.7-1.3,19.5-16.3,7.1,2.5-10.7,30.4-7.9-2.8,6.4-18.4,1.4.5-14.6,12.1-3.8-1.4-4-18.7,1.6.6-6.5,18.4Z" transform="translate(-199.5 -150.1)"/><path class="cls-6" d="M648.7,208.6l14.5-28.7,13.2,6.7a18.7,18.7,0,0,1,6.1,4.7,11.6,11.6,0,0,1,2.6,5.9,11.9,11.9,0,0,1-1.3,6.5,11,11,0,0,1-10.7,6.2,19,19,0,0,1-7.5-2.1l-8.6-4.4,5.4-1.7-5.6,11.1Zm13.3-6-1.8-5.6,8.2,4.1c1.7.9,3.1,1.2,4.3.8a4.2,4.2,0,0,0,2.8-2.4,4.7,4.7,0,0,0,.4-3.8,7,7,0,0,0-3.3-3l-8.1-4.1,5.5-1.9Z" transform="translate(-199.5 -150.1)"/><path class="cls-6" d="M691.2,233.3a20.7,20.7,0,0,1-5.2-5,16.8,16.8,0,0,1-2.8-6.1,15.8,15.8,0,0,1-.2-6.5,17.2,17.2,0,0,1,2.6-6.3,18.2,18.2,0,0,1,4.8-4.8,15.1,15.1,0,0,1,6.1-2.3,16.9,16.9,0,0,1,6.7.2,21.3,21.3,0,0,1,11.9,7.9A17.2,17.2,0,0,1,718,223a17,17,0,0,1-7.5,11.1,15.3,15.3,0,0,1-6,2.3,16.9,16.9,0,0,1-6.7-.2A21.1,21.1,0,0,1,691.2,233.3Zm4.2-6.3a10.1,10.1,0,0,0,3.2,1.4,7.4,7.4,0,0,0,3.3-.1,8.3,8.3,0,0,0,3.2-1.4,9.6,9.6,0,0,0,2.6-2.7,11.4,11.4,0,0,0,1.6-3.6,9.7,9.7,0,0,0,.1-3.4,9.3,9.3,0,0,0-1.3-3.1,9.6,9.6,0,0,0-2.5-2.4,8.3,8.3,0,0,0-3.2-1.4,9.1,9.1,0,0,0-3.3,0,10.1,10.1,0,0,0-3.2,1.4,8.8,8.8,0,0,0-2.6,2.8,10.9,10.9,0,0,0-1.6,3.5,10.4,10.4,0,0,0-.1,3.5,8.1,8.1,0,0,0,1.3,3A8.5,8.5,0,0,0,695.4,227Z" transform="translate(-199.5 -150.1)"/><path class="cls-6" d="M714.7,249.3l13.9-30.9,7,6.4-12.3,26.5-3.5-3.2,25.6-14.4,6.2,5.7-12.3,26.4-3.4-3,25.5-14.5,6.4,5.8-29.4,16.8-7.2-6.6,10.4-22.5,2,1.8-21.7,12.2Z" transform="translate(-199.5 -150.1)"/><path class="cls-6" d="M758.1,282.7l10.7,12.9-5.4,4.5-16.5-19.9,24.8-20.5,16.1,19.4-5.4,4.5L772,271.1Zm9.3-8.6,9.6,11.5-5.3,4.3-9.5-11.5Z" transform="translate(-199.5 -150.1)"/><path class="cls-6" d="M766,303.6l26.8-17.8,8.1,12.2a16.8,16.8,0,0,1,3,7.2,10.7,10.7,0,0,1-.7,6.4,11.1,11.1,0,0,1-4.3,4.9,10.6,10.6,0,0,1-6.2,2,10.8,10.8,0,0,1-6.1-1.8,19.3,19.3,0,0,1-5.4-5.6l-5.3-8.1,5.4,1.3L771,311.1Zm11,16.6,5.3-13.2,5.4,8.1-5.3,13.2Zm3.5-15.4,1.3-5.6,5,7.5a6.1,6.1,0,0,0,3.4,2.9,4.3,4.3,0,0,0,3.6-.7,4.7,4.7,0,0,0,2.2-3.1,6.6,6.6,0,0,0-1.4-4.3l-5-7.6,5.7,1.1Z" transform="translate(-199.5 -150.1)"/><path class="cls-6" d="M784.2,331.2l28.9-14.3,3.3,6.7-13.7,21.7-1.8-3.6,25.4,2,3.3,6.7-28.8,14.3-3.7-7.5,17.4-8.7.6,1.3-18.9-1.5-1.8-3.6,10.2-16.2.8,1.6-17.5,8.6Z" transform="translate(-199.5 -150.1)"/><path class="cls-6" d="M812.2,376.2l5.6,15.9-6.7,2.3L802.6,370,833,359.4l8.3,23.8-6.6,2.3-5.4-15.3Zm11.8-4.8,4.9,14.1-6.4,2.2-5-14.1Z" transform="translate(-199.5 -150.1)"/><path class="cls-6" d="M812.4,398.4l31.4-7.2,1.6,7.4-16.9,22-.8-3.4,20.9-4.8,2,8.7-31.4,7.2-1.7-7.3,17-22.1.7,3.4-20.9,4.8Z" transform="translate(-199.5 -150.1)"/><path class="cls-6" d="M820.7,440.6l24.8-2.8-1.1-9.8,7.1-.9,3.3,28.7-7.1.8-1.2-9.8-24.8,2.9Z" transform="translate(-199.5 -150.1)"/></svg>